<?xml version="1.0" encoding="UTF-8" standalone="no"?>
<!-- Created with Inkscape (http://www.inkscape.org/) -->

<svg
   xmlns:dc="http://purl.org/dc/elements/1.1/"
   xmlns:cc="http://creativecommons.org/ns#"
   xmlns:rdf="http://www.w3.org/1999/02/22-rdf-syntax-ns#"
   xmlns:svg="http://www.w3.org/2000/svg"
   xmlns="http://www.w3.org/2000/svg"
   xmlns:sodipodi="http://sodipodi.sourceforge.net/DTD/sodipodi-0.dtd"
   xmlns:inkscape="http://www.inkscape.org/namespaces/inkscape"
   width="512"
   height="512"
   viewBox="0 0 512 512"
   id="svg2"
   version="1.1"
   inkscape:version="0.91 r13725"
   sodipodi:docname="logo-bisect-green.svg">
  <title
     id="title3391">Counterpoint Hackerspace</title>
  <defs
     id="defs4" />
  <sodipodi:namedview
     id="base"
     pagecolor="#ffffff"
     bordercolor="#666666"
     borderopacity="1.0"
     inkscape:pageopacity="0.0"
     inkscape:pageshadow="2"
     inkscape:zoom="1.4"
     inkscape:cx="358.54243"
     inkscape:cy="255.06603"
     inkscape:document-units="px"
     inkscape:current-layer="text3344"
     showgrid="false"
     inkscape:window-width="1916"
     inkscape:window-height="1033"
     inkscape:window-x="0"
     inkscape:window-y="22"
     inkscape:window-maximized="0"
     showguides="true"
     inkscape:guide-bbox="true"
     units="px"
     inkscape:showpageshadow="false"
     borderlayer="true">
    <sodipodi:guide
       position="0,371.4836"
       orientation="1,0"
       id="guide3365" />
    <sodipodi:guide
       position="181.82746,0.25253814"
       orientation="0,1"
       id="guide3369" />
    <sodipodi:guide
       position="511.95794,388.46679"
       orientation="1,0"
       id="guide3373" />
    <sodipodi:guide
       position="197.5,512.14286"
       orientation="0,1"
       id="guide3375" />
    <sodipodi:guide
       position="256.00446,292.79018"
       orientation="1,0"
       id="guide3389" />
  </sodipodi:namedview>
  <metadata
     id="metadata7">
    <rdf:RDF>
      <cc:Work
         rdf:about="">
        <dc:format>image/svg+xml</dc:format>
        <dc:type
           rdf:resource="http://purl.org/dc/dcmitype/StillImage" />
        <dc:title>Counterpoint Hackerspace</dc:title>
        <cc:license
           rdf:resource="http://creativecommons.org/publicdomain/zero/1.0/" />
        <dc:date>09/23/2015</dc:date>
        <dc:creator>
          <cc:Agent>
            <dc:title>Gordon Hall</dc:title>
          </cc:Agent>
        </dc:creator>
      </cc:Work>
      <cc:License
         rdf:about="http://creativecommons.org/publicdomain/zero/1.0/">
        <cc:permits
           rdf:resource="http://creativecommons.org/ns#Reproduction" />
        <cc:permits
           rdf:resource="http://creativecommons.org/ns#Distribution" />
        <cc:permits
           rdf:resource="http://creativecommons.org/ns#DerivativeWorks" />
      </cc:License>
    </rdf:RDF>
  </metadata>
  <g
     inkscape:label="Layer 1"
     inkscape:groupmode="layer"
     id="layer1"
     transform="translate(0,-540.36219)">
    <g
       style="font-style:normal;font-weight:normal;font-size:342.8788147px;line-height:125%;font-family:sans-serif;letter-spacing:0px;word-spacing:0px;fill:#000000;fill-opacity:1;stroke:none;stroke-width:1px;stroke-linecap:butt;stroke-linejoin:miter;stroke-opacity:1"
       id="text3344">
      <path
         id="path3355"
         style="font-style:normal;font-variant:normal;font-weight:normal;font-stretch:normal;font-family:'Mensch for Powerline';-inkscape-font-specification:'Mensch for Powerline'"
         d="m 384.58026,633.28441 47.44987,170.39277 -166.31195,39.93965 -13.75945,23.83205 200.86353,-37.52891 12.48125,-21.61814 L 415.266,640.37774 Z m 6.38658,-6.90577 -266.88497,225.56585 24.87389,14.36096 266.75475,-225.64105 -24.74367,-14.28576 z"
         inkscape:connector-curvature="0" />
      <g
         id="g3350"
         style="fill:#008000"
         transform="matrix(0.8981917,0,0,0.8981917,-46.909799,496.03284)">
        <path
           id="path3353-3"
           style="font-style:normal;font-variant:normal;font-weight:normal;font-stretch:normal;font-size:342.8788147px;line-height:125%;font-family:'Mensch for Powerline';-inkscape-font-specification:'Mensch for Powerline';letter-spacing:0px;word-spacing:0px;fill:#008000;fill-opacity:1;stroke:none;stroke-width:1px;stroke-linecap:butt;stroke-linejoin:miter;stroke-opacity:1"
           d="m 449.50684,123.13637 -297.13587,251.13331 27.6933,15.98874 296.99089,-251.21703 -27.54832,-15.90502 z m -129.34904,24.86761 15.23534,-26.38837 -217.269,30.76341 -13.89597,24.06853 48.2621,197.78852 39.39555,3.6777 -50.78022,-196.02739 z"
           inkscape:connector-curvature="0" />
      </g>
      <g
         id="g3456"
         style="fill:#008000">
        <path
           d="m 9.978322,945.66498 0,-35.15306 35.15306,0 0,11.71768 -23.435373,0 0,11.71769 23.435373,0 0,11.71769 -35.15306,0 z"
           style="font-style:normal;font-weight:normal;font-size:medium;line-height:125%;font-family:sans-serif;letter-spacing:0px;word-spacing:0px;fill:#008000;fill-opacity:1;stroke:none;stroke-width:1px;stroke-linecap:butt;stroke-linejoin:miter;stroke-opacity:1"
           id="path3413"
           inkscape:connector-curvature="0" />
        <path
           d="m 80.284442,933.94729 0,-11.71769 -11.717687,0 0,11.71769 11.717687,0 z m -23.435373,11.71769 0,-35.15306 35.15306,0 0,35.15306 -35.15306,0 z"
           style="font-style:normal;font-weight:normal;font-size:medium;line-height:125%;font-family:sans-serif;letter-spacing:0px;word-spacing:0px;fill:#008000;fill-opacity:1;stroke:none;stroke-width:1px;stroke-linecap:butt;stroke-linejoin:miter;stroke-opacity:1"
           id="path3415"
           inkscape:connector-curvature="0" />
        <path
           d="m 103.71982,945.66498 0,-35.15306 11.71768,0 0,23.43537 11.71769,0 0,-23.43537 11.71769,0 0,35.15306 -35.15306,0 z"
           style="font-style:normal;font-weight:normal;font-size:medium;line-height:125%;font-family:sans-serif;letter-spacing:0px;word-spacing:0px;fill:#008000;fill-opacity:1;stroke:none;stroke-width:1px;stroke-linecap:butt;stroke-linejoin:miter;stroke-opacity:1"
           id="path3417"
           inkscape:connector-curvature="0" />
        <path
           d="m 150.59057,945.66498 0,-35.15306 35.15306,0 0,35.15306 -11.71769,0 0,-23.43538 -11.71769,0 0,23.43538 -11.71768,0 z"
           style="font-style:normal;font-weight:normal;font-size:medium;line-height:125%;font-family:sans-serif;letter-spacing:0px;word-spacing:0px;fill:#008000;fill-opacity:1;stroke:none;stroke-width:1px;stroke-linecap:butt;stroke-linejoin:miter;stroke-opacity:1"
           id="path3419"
           inkscape:connector-curvature="0" />
        <path
           d="m 197.46131,945.66498 0,-58.58844 11.71769,0 0,11.71769 11.71768,0 0,11.71769 -11.71768,0 0,35.15306 -11.71769,0 z"
           style="font-style:normal;font-weight:normal;font-size:medium;line-height:125%;font-family:sans-serif;letter-spacing:0px;word-spacing:0px;fill:#008000;fill-opacity:1;stroke:none;stroke-width:1px;stroke-linecap:butt;stroke-linejoin:miter;stroke-opacity:1"
           id="path3421"
           inkscape:connector-curvature="0" />
        <path
           d="m 232.61437,945.66498 0,-35.15306 35.15306,0 0,23.43537 -11.71769,0 0,-11.71769 -11.71768,0 0,11.71769 11.71768,0 0,11.71769 -23.43537,0 z"
           style="font-style:normal;font-weight:normal;font-size:medium;line-height:125%;font-family:sans-serif;letter-spacing:0px;word-spacing:0px;fill:#008000;fill-opacity:1;stroke:none;stroke-width:1px;stroke-linecap:butt;stroke-linejoin:miter;stroke-opacity:1"
           id="path3423"
           inkscape:connector-curvature="0" />
        <path
           d="m 279.48513,945.66498 0,-35.15306 23.43537,0 0,11.71768 -11.71769,0 0,23.43538 -11.71768,0 z"
           style="font-style:normal;font-weight:normal;font-size:medium;line-height:125%;font-family:sans-serif;letter-spacing:0px;word-spacing:0px;fill:#008000;fill-opacity:1;stroke:none;stroke-width:1px;stroke-linecap:butt;stroke-linejoin:miter;stroke-opacity:1"
           id="path3425"
           inkscape:connector-curvature="0" />
      </g>
      <g
         id="g3449">
        <path
           d="m 338.07355,933.94729 0,-11.71769 -11.71769,0 0,11.71769 11.71769,0 z m -23.43538,35.15306 0,-58.58843 35.15306,0 0,35.15306 -23.43537,0 0,23.43537 -11.71769,0 z"
           style="font-style:normal;font-variant:normal;font-weight:normal;font-stretch:normal;font-size:93.74149323px;line-height:125%;font-family:'I pixel u';-inkscape-font-specification:'I pixel u';letter-spacing:0px;word-spacing:0px;fill:#000000;fill-opacity:1;stroke:none;stroke-width:1px;stroke-linecap:butt;stroke-linejoin:miter;stroke-opacity:1"
           id="path3427"
           inkscape:connector-curvature="0" />
        <path
           d="m 384.9443,933.94729 0,-11.71769 -11.71768,0 0,11.71769 11.71768,0 z m -23.43537,11.71769 0,-35.15306 35.15306,0 0,35.15306 -35.15306,0 z"
           style="font-style:normal;font-variant:normal;font-weight:normal;font-stretch:normal;font-size:93.74149323px;line-height:125%;font-family:'I pixel u';-inkscape-font-specification:'I pixel u';letter-spacing:0px;word-spacing:0px;fill:#000000;fill-opacity:1;stroke:none;stroke-width:1px;stroke-linecap:butt;stroke-linejoin:miter;stroke-opacity:1"
           id="path3429"
           inkscape:connector-curvature="0" />
        <path
           d="m 408.37966,945.66498 0,-23.43538 11.71769,0 0,23.43538 -11.71769,0 z m 0,-35.15306 0,-11.71769 11.71769,0 0,11.71769 -11.71769,0 z"
           style="font-style:normal;font-variant:normal;font-weight:normal;font-stretch:normal;font-size:93.74149323px;line-height:125%;font-family:'I pixel u';-inkscape-font-specification:'I pixel u';letter-spacing:0px;word-spacing:0px;fill:#000000;fill-opacity:1;stroke:none;stroke-width:1px;stroke-linecap:butt;stroke-linejoin:miter;stroke-opacity:1"
           id="path3431"
           inkscape:connector-curvature="0" />
        <path
           d="m 431.81505,945.66498 0,-35.15306 35.15306,0 0,35.15306 -11.71768,0 0,-23.43538 -11.71769,0 0,23.43538 -11.71769,0 z"
           style="font-style:normal;font-variant:normal;font-weight:normal;font-stretch:normal;font-size:93.74149323px;line-height:125%;font-family:'I pixel u';-inkscape-font-specification:'I pixel u';letter-spacing:0px;word-spacing:0px;fill:#000000;fill-opacity:1;stroke:none;stroke-width:1px;stroke-linecap:butt;stroke-linejoin:miter;stroke-opacity:1"
           id="path3433"
           inkscape:connector-curvature="0" />
        <path
           d="m 478.68578,945.66498 0,-58.58844 11.71769,0 0,11.71769 11.71768,0 0,11.71769 -11.71768,0 0,35.15306 -11.71769,0 z"
           style="font-style:normal;font-variant:normal;font-weight:normal;font-stretch:normal;font-size:93.74149323px;line-height:125%;font-family:'I pixel u';-inkscape-font-specification:'I pixel u';letter-spacing:0px;word-spacing:0px;fill:#000000;fill-opacity:1;stroke:none;stroke-width:1px;stroke-linecap:butt;stroke-linejoin:miter;stroke-opacity:1"
           id="path3435"
           inkscape:connector-curvature="0" />
      </g>
    </g>
  </g>
</svg>
